<svg xmlns="http://www.w3.org/2000/svg" viewBox="0 0 409.98 64.32"><defs><style>.cls-1{fill:#424242;}.cls-2{fill:#4675b9;}</style></defs><g id="Layer_2" data-name="Layer 2"><g id="initcloud_logo"><g id="initcloud_logo_horizontal"><g id="initcloud_text"><g id="init"><path class="cls-1" d="M112.66,47.39c0,.84,0,1.61.07,2.32a7.48,7.48,0,0,0,.29,1.76,3.13,3.13,0,0,0,.62,1.14,3.4,3.4,0,0,0,1.13.8,8.3,8.3,0,0,0,1.75.59v2.36H97.75V54a10,10,0,0,0,2.09-.76A2.66,2.66,0,0,0,101,52.09a5.15,5.15,0,0,0,.48-1.86c.07-.75.11-1.69.11-2.84V16.54q0-1.71-.09-2.82a4.85,4.85,0,0,0-.47-1.84,2.79,2.79,0,0,0-1.14-1.17,9.69,9.69,0,0,0-2.13-.78V7.57h18.77V9.93a7.79,7.79,0,0,0-2.16.84,3.06,3.06,0,0,0-1.06,1.09,4.92,4.92,0,0,0-.5,1.68,25.14,25.14,0,0,0-.14,3Z"/><path class="cls-1" d="M161.85,56.36H144.51V54a4.13,4.13,0,0,0,2.29-1.16,4.28,4.28,0,0,0,.87-2.07,30.89,30.89,0,0,0,.23-4.7V36.52c0-1.69,0-3.08-.1-4.16a18.43,18.43,0,0,0-.34-2.66,6.4,6.4,0,0,0-.64-1.74,4.88,4.88,0,0,0-.92-1.14,3.1,3.1,0,0,0-1.14-.66,5.08,5.08,0,0,0-1.64-.22,5.7,5.7,0,0,0-2.83.84,7.29,7.29,0,0,0-2.46,2.33,5.54,5.54,0,0,0-1,3.16V46a33.06,33.06,0,0,0,.22,4.72,4.13,4.13,0,0,0,.87,2.09A4.27,4.27,0,0,0,140.26,54v2.36H123V54a4.87,4.87,0,0,0,2.38-1.21,4.09,4.09,0,0,0,.89-2,30.49,30.49,0,0,0,.23-4.68V31.38c0-1.77,0-3.07-.09-3.92a6.22,6.22,0,0,0-.43-2,3,3,0,0,0-1-1.25,7.16,7.16,0,0,0-2.41-.84V20.9l9.79-.28h4.5l-.53,5.14.43.11a37,37,0,0,1,3.89-3.09A16.22,16.22,0,0,1,144.13,21a11.42,11.42,0,0,1,3.88-.66,12.18,12.18,0,0,1,4.86.84A7.62,7.62,0,0,1,156,23.62a10.24,10.24,0,0,1,1.72,3.93,25.36,25.36,0,0,1,.52,5.4V46c0,1,0,2,0,2.95a11.21,11.21,0,0,0,.27,2.2,4,4,0,0,0,.59,1.34,3,3,0,0,0,1,.88,7.65,7.65,0,0,0,1.65.6Z"/><rect class="cls-2" x="170.93" y="6.64" width="9.8" height="8.76"/><path class="cls-1" d="M183,53.43a3.08,3.08,0,0,1-.93-.71,3.55,3.55,0,0,1-.51-.86,4.41,4.41,0,0,1-.31-1.06,15,15,0,0,1-.16-1.68c0-.72-.05-1.75-.05-3.09V20.62h-4.47l-9.83.28v2.43a10.57,10.57,0,0,1,2,.59,2.91,2.91,0,0,1,1.22,1,4,4,0,0,1,.61,1.71,21.11,21.11,0,0,1,.16,2.83V46.07a30.1,30.1,0,0,1-.24,4.68,4.09,4.09,0,0,1-.89,2A4.9,4.9,0,0,1,167.14,54v2.36h17.44V54A6.74,6.74,0,0,1,183,53.43Z"/><path class="cls-1" d="M214.64,52.07a22.74,22.74,0,0,1-5.71,3.77,13.77,13.77,0,0,1-5.44,1.1q-5.33,0-8-2.88t-2.63-8.71v-20h-4.47V22.9a8,8,0,0,0,3.22-1.07,4.71,4.71,0,0,0,1.61-1.91,12.54,12.54,0,0,0,.91-3.13A43.36,43.36,0,0,0,194.7,12h8.54V20.9h10.19v4.47H203.24V41.49a34.18,34.18,0,0,0,.38,6,5.41,5.41,0,0,0,1.27,2.84,3,3,0,0,0,2.21.92,8.09,8.09,0,0,0,1.79-.18,6.84,6.84,0,0,0,1.66-.65,9.69,9.69,0,0,0,1.84-1.32Z"/></g><g id="cloud"><path class="cls-1" d="M268.75,9.69v9.9h-3.54A15.66,15.66,0,0,0,263,14.64,7.68,7.68,0,0,0,260,12a10.11,10.11,0,0,0-4.21-.79,9.83,9.83,0,0,0-6.56,2.45A16.16,16.16,0,0,0,244.65,21,37.93,37.93,0,0,0,243,32.93a45.58,45.58,0,0,0,1.36,12,15.88,15.88,0,0,0,4,7.47,9.07,9.07,0,0,0,6.51,2.52,11.72,11.72,0,0,0,4.79-.84,7.61,7.61,0,0,0,3.13-2.67A21.24,21.24,0,0,0,265.21,46h3.54V56.24a54,54,0,0,1-6.88,1.34,63.41,63.41,0,0,1-7.74.44Q245,58,240.4,51.87t-4.65-18.34a34.46,34.46,0,0,1,2.42-13.4,19.4,19.4,0,0,1,7.09-8.9,19.57,19.57,0,0,1,11.19-3.15,50.65,50.65,0,0,1,6,.34A49.29,49.29,0,0,1,268.75,9.69Z"/><path class="cls-1" d="M285.69,48.51a21.21,21.21,0,0,0,.29,4.27,3.14,3.14,0,0,0,1.09,1.83,7.29,7.29,0,0,0,2.62,1.09v1.75H275.5V55.7a8,8,0,0,0,2.49-1,2.9,2.9,0,0,0,1-1.19,7,7,0,0,0,.43-1.9c.08-.8.12-1.84.12-3.13V18.59c0-2.28,0-3.88-.05-4.79a11.67,11.67,0,0,0-.29-2.3,4,4,0,0,0-.64-1.49,2.84,2.84,0,0,0-1.11-.85,11.4,11.4,0,0,0-2.52-.65V6.65l8.62-.35h2.14Z"/><path class="cls-1" d="M311.57,58q-7.44,0-11.35-4.38t-3.91-13a22,22,0,0,1,2.05-10A13.83,13.83,0,0,1,304,24.65a16.56,16.56,0,0,1,8.15-2q7.65,0,11.59,4.45t3.93,12.78a22.93,22.93,0,0,1-2,10A13.41,13.41,0,0,1,320.11,56,17.15,17.15,0,0,1,311.57,58Zm-8.51-18.09q0,7.37,2.35,11.32a7.38,7.38,0,0,0,6.7,4A7,7,0,0,0,316.18,54a8.89,8.89,0,0,0,2.74-3.13,15.38,15.38,0,0,0,1.52-4.56,30.61,30.61,0,0,0,.46-5.41,28,28,0,0,0-1.16-8.73,10.76,10.76,0,0,0-3.16-5.09A7.1,7.1,0,0,0,312,25.49a7.35,7.35,0,0,0-6.63,3.75Q303.06,33,303.06,39.93Z"/><path class="cls-1" d="M334,23.28h10.19V41.47a47.65,47.65,0,0,0,.32,6.36,9.51,9.51,0,0,0,1,3.29A5.39,5.39,0,0,0,347.32,53a6,6,0,0,0,3.25.75,6.65,6.65,0,0,0,2.61-.53A11.09,11.09,0,0,0,356,51.32a9,9,0,0,0,2.2-2.66,6.81,6.81,0,0,0,.66-3.08V32.18c0-1.36,0-2.38-.11-3.08a6.62,6.62,0,0,0-.35-1.66,3.75,3.75,0,0,0-.59-1,3.17,3.17,0,0,0-1-.71,10.25,10.25,0,0,0-2-.68V23.28H365V47.69c0,1.84,0,3.16.11,4a5.41,5.41,0,0,0,.46,1.93,2.81,2.81,0,0,0,1.11,1.16,9.26,9.26,0,0,0,2.68.84v1.86l-8.19.36H359l.22-5.86-.54-.15A23.56,23.56,0,0,1,353,56.52a11,11,0,0,1-5.41,1.5,10.11,10.11,0,0,1-5.36-1.29,7.66,7.66,0,0,1-3.15-3.84,19.83,19.83,0,0,1-1-7.2V32.18a23.37,23.37,0,0,0-.24-4.13,3.41,3.41,0,0,0-.89-1.79A6.79,6.79,0,0,0,334,25Z"/><path class="cls-1" d="M399.44,18.59c0-2.28,0-3.88-.06-4.79a11.74,11.74,0,0,0-.28-2.3,4,4,0,0,0-.65-1.49,2.88,2.88,0,0,0-1.1-.85,11.73,11.73,0,0,0-2.52-.65V6.65l8.65-.35h2.11V47.69c0,1.86,0,3.19.1,4a5.61,5.61,0,0,0,.47,1.91,2.77,2.77,0,0,0,1.12,1.16,9.79,9.79,0,0,0,2.7.84v1.86l-8.43.36H399.4l.43-5.86-.54-.15a27.89,27.89,0,0,1-3.91,3.59,15.6,15.6,0,0,1-3.54,1.92,11.33,11.33,0,0,1-4,.71,10.44,10.44,0,0,1-9-4.45c-2.13-3-3.18-7.25-3.18-12.85a21.89,21.89,0,0,1,2.07-10,14.12,14.12,0,0,1,5.59-6.09,15.8,15.8,0,0,1,7.92-2,22.63,22.63,0,0,1,4.29.37,19.64,19.64,0,0,1,4,1.24Zm0,17.66a32.77,32.77,0,0,0-.25-4.47,9.21,9.21,0,0,0-.84-2.82A6,6,0,0,0,396.76,27a6.51,6.51,0,0,0-2.2-1.14,10.1,10.1,0,0,0-2.88-.36,7.82,7.82,0,0,0-7,3.66c-1.6,2.45-2.39,5.95-2.39,10.53s.65,8.06,2,10.44a6.4,6.4,0,0,0,6,3.57,11.13,11.13,0,0,0,2.61-.26,8.15,8.15,0,0,0,2-.86,11.27,11.27,0,0,0,2-1.63,9.06,9.06,0,0,0,1.51-1.89,7.2,7.2,0,0,0,.74-2,13.83,13.83,0,0,0,.25-2.86Z"/></g></g><g id="initcloud_logo-2" data-name="initcloud_logo"><polygon class="cls-1" points="33.74 55.51 37.1 49.69 37.88 48.35 42.17 40.91 37.12 32.15 26.97 32.14 22.68 39.57 21.9 40.91 17.61 48.35 17.63 48.38 13.5 55.54 18.57 64.32 28.7 64.32 33.77 55.54 33.74 55.51"/><polygon class="cls-1" points="55.7 0 18.57 0 0 32.16 4.55 40.03 9.09 32.16 10.02 30.55 23.11 7.88 51.15 7.88 65.17 32.16 52.09 54.83 51.15 56.45 46.61 64.32 55.7 64.32 74.27 32.16 55.7 0"/><polygon class="cls-2" points="23.12 7.88 37.12 32.15 51.15 7.88 23.12 7.88"/></g></g></g></g></svg>